<svg width="28" height="28" viewBox="0 0 28 28" fill="none" xmlns="http://www.w3.org/2000/svg">
<g clip-path="url(#clip0_605_165)">
<path d="M22.1667 12.8335H8.33002L12.565 7.74683C12.763 7.50857 12.8583 7.20141 12.8299 6.89291C12.8014 6.58442 12.6516 6.29985 12.4134 6.10183C12.1751 5.9038 11.8679 5.80852 11.5594 5.83697C11.2509 5.86541 10.9664 6.01524 10.7684 6.25349L4.93502 13.2535C4.89577 13.3092 4.86068 13.3677 4.83002 13.4285C4.83002 13.4868 4.83002 13.5218 4.74835 13.5802C4.69547 13.7139 4.66778 13.8563 4.66669 14.0002C4.66778 14.144 4.69547 14.2864 4.74835 14.4202C4.74835 14.4785 4.74835 14.5135 4.83002 14.5718C4.86068 14.6327 4.89577 14.6911 4.93502 14.7468L10.7684 21.7468C10.878 21.8785 11.0154 21.9844 11.1707 22.057C11.3259 22.1296 11.4953 22.1671 11.6667 22.1668C11.9393 22.1674 12.2035 22.0724 12.4134 21.8985C12.5315 21.8006 12.6291 21.6803 12.7007 21.5445C12.7723 21.4088 12.8164 21.2603 12.8305 21.1075C12.8446 20.9547 12.8284 20.8006 12.7828 20.654C12.7373 20.5075 12.6633 20.3714 12.565 20.2535L8.33002 15.1668H22.1667C22.4761 15.1668 22.7729 15.0439 22.9916 14.8251C23.2104 14.6063 23.3334 14.3096 23.3334 14.0002C23.3334 13.6907 23.2104 13.394 22.9916 13.1752C22.7729 12.9564 22.4761 12.8335 22.1667 12.8335Z" fill="#C4D6E2"/>
</g>
<defs>
<clipPath id="clip0_605_165">
<rect width="28" height="28" fill="white"/>
</clipPath>
</defs>
</svg>
