<svg width="20" height="22" viewBox="0 0 20 22" fill="none" xmlns="http://www.w3.org/2000/svg">
<path d="M19.1667 3.38462H15.0004V2.53846C14.9997 1.86545 14.736 1.22023 14.2673 0.744339C13.7987 0.268449 13.1632 0.00076089 12.5004 0H7.50041C6.83759 0.00076089 6.20215 0.268449 5.73347 0.744339C5.26479 1.22023 5.00116 1.86545 5.00041 2.53846V3.38462H0.833333C0.61232 3.38462 0.400358 3.47376 0.244078 3.63245C0.0877975 3.79113 0 4.00636 0 4.23077C0 4.45518 0.0877975 4.67041 0.244078 4.82909C0.400358 4.98777 0.61232 5.07692 0.833333 5.07692H1.66667V20.3077C1.66717 20.7564 1.84293 21.1865 2.15538 21.5038C2.46783 21.821 2.89146 21.9995 3.33333 22H16.6667C17.1085 21.9995 17.5322 21.821 17.8446 21.5038C18.1571 21.1865 18.3328 20.7564 18.3333 20.3077V5.07692H19.1667C19.3877 5.07692 19.5996 4.98777 19.7559 4.82909C19.9122 4.67041 20 4.45518 20 4.23077C20 4.00636 19.9122 3.79113 19.7559 3.63245C19.5996 3.47376 19.3877 3.38462 19.1667 3.38462ZM8.33374 16.0769C8.33374 16.3013 8.24594 16.5166 8.08966 16.6752C7.93338 16.8339 7.72142 16.9231 7.50041 16.9231C7.27939 16.9231 7.06743 16.8339 6.91115 16.6752C6.75487 16.5166 6.66707 16.3013 6.66707 16.0769V9.30769C6.66707 9.08328 6.75487 8.86806 6.91115 8.70937C7.06743 8.55069 7.27939 8.46154 7.50041 8.46154C7.72142 8.46154 7.93338 8.55069 8.08966 8.70937C8.24594 8.86806 8.33374 9.08328 8.33374 9.30769V16.0769ZM13.3337 16.0769C13.3337 16.3013 13.2459 16.5166 13.0897 16.6752C12.9334 16.8339 12.7214 16.9231 12.5004 16.9231C12.2794 16.9231 12.0674 16.8339 11.9111 16.6752C11.7549 16.5166 11.6671 16.3013 11.6671 16.0769V9.30769C11.6671 9.08328 11.7549 8.86806 11.9111 8.70937C12.0674 8.55069 12.2794 8.46154 12.5004 8.46154C12.7214 8.46154 12.9334 8.55069 13.0897 8.70937C13.2459 8.86806 13.3337 9.08328 13.3337 9.30769V16.0769ZM13.3337 3.38462H6.66707V2.53846C6.66733 2.31413 6.7552 2.09905 6.91143 1.94042C7.06766 1.78179 7.27947 1.69256 7.50041 1.69231H12.5004C12.7213 1.69256 12.9332 1.78179 13.0894 1.94042C13.2456 2.09905 13.3335 2.31413 13.3337 2.53846V3.38462Z" fill="#5A778E"/>
</svg>
